ISO-10303-21;
HEADER;
FILE_DESCRIPTION(('Open CASCADE Model'),'2;1');
FILE_NAME('Open CASCADE Shape Model','2026-06-02T21:38:28',('Author'),(
    'Open CASCADE'),'Open CASCADE STEP processor 7.5','Open CASCADE 7.5'
  ,'Unknown');
FILE_SCHEMA(('AUTOMOTIVE_DESIGN { 1 0 10303 214 1 1 1 1 }'));
ENDSEC;
DATA;
#1 = APPLICATION_PROTOCOL_DEFINITION('international standard',
  'automotive_design',2000,#2);
#2 = APPLICATION_CONTEXT(
  'core data for automotive mechanical design processes');
#3 = SHAPE_DEFINITION_REPRESENTATION(#4,#10);
#4 = PRODUCT_DEFINITION_SHAPE('','',#5);
#5 = PRODUCT_DEFINITION('design','',#6,#9);
#6 = PRODUCT_DEFINITION_FORMATION('','',#7);
#7 = PRODUCT('Open CASCADE STEP translator 7.5 1',
  'Open CASCADE STEP translator 7.5 1','',(#8));
#8 = PRODUCT_CONTEXT('',#2,'mechanical');
#9 = PRODUCT_DEFINITION_CONTEXT('part definition',#2,'design');
#10 = ADVANCED_BREP_SHAPE_REPRESENTATION('',(#11,#15),#569);
#11 = AXIS2_PLACEMENT_3D('',#12,#13,#14);
#12 = CARTESIAN_POINT('',(0.,0.,0.));
#13 = DIRECTION('',(0.,0.,1.));
#14 = DIRECTION('',(1.,0.,-0.));
#15 = MANIFOLD_SOLID_BREP('',#16);
#16 = CLOSED_SHELL('',(#17,#163,#324,#436,#485,#535,#562));
#17 = ADVANCED_FACE('27',(#18),#32,.T.);
#18 = FACE_BOUND('',#19,.T.);
#19 = EDGE_LOOP('',(#20,#55,#109,#137));
#20 = ORIENTED_EDGE('',*,*,#21,.F.);
#21 = EDGE_CURVE('',#22,#24,#26,.T.);
#22 = VERTEX_POINT('',#23);
#23 = CARTESIAN_POINT('',(24.,0.,1.86733404895));
#24 = VERTEX_POINT('',#25);
#25 = CARTESIAN_POINT('',(24.,0.,18.));
#26 = SURFACE_CURVE('',#27,(#31,#43),.PCURVE_S1.);
#27 = LINE('',#28,#29);
#28 = CARTESIAN_POINT('',(24.,0.,0.));
#29 = VECTOR('',#30,1.);
#30 = DIRECTION('',(0.,0.,1.));
#31 = PCURVE('',#32,#37);
#32 = PLANE('',#33);
#33 = AXIS2_PLACEMENT_3D('',#34,#35,#36);
#34 = CARTESIAN_POINT('',(24.,0.,0.));
#35 = DIRECTION('',(1.,0.,-0.));
#36 = DIRECTION('',(0.,0.,1.));
#37 = DEFINITIONAL_REPRESENTATION('',(#38),#42);
#38 = LINE('',#39,#40);
#39 = CARTESIAN_POINT('',(0.,0.));
#40 = VECTOR('',#41,1.);
#41 = DIRECTION('',(1.,0.));
#42 = ( GEOMETRIC_REPRESENTATION_CONTEXT(2) 
PARAMETRIC_REPRESENTATION_CONTEXT() REPRESENTATION_CONTEXT('2D SPACE',''
  ) );
#43 = PCURVE('',#44,#49);
#44 = PLANE('',#45);
#45 = AXIS2_PLACEMENT_3D('',#46,#47,#48);
#46 = CARTESIAN_POINT('',(0.,0.,0.));
#47 = DIRECTION('',(-0.,1.,0.));
#48 = DIRECTION('',(0.,0.,1.));
#49 = DEFINITIONAL_REPRESENTATION('',(#50),#54);
#50 = LINE('',#51,#52);
#51 = CARTESIAN_POINT('',(0.,24.));
#52 = VECTOR('',#53,1.);
#53 = DIRECTION('',(1.,0.));
#54 = ( GEOMETRIC_REPRESENTATION_CONTEXT(2) 
PARAMETRIC_REPRESENTATION_CONTEXT() REPRESENTATION_CONTEXT('2D SPACE',''
  ) );
#55 = ORIENTED_EDGE('',*,*,#56,.T.);
#56 = EDGE_CURVE('',#22,#57,#59,.T.);
#57 = VERTEX_POINT('',#58);
#58 = CARTESIAN_POINT('',(24.,24.,1.678220473531));
#59 = SURFACE_CURVE('',#60,(#69,#77),.PCURVE_S1.);
#60 = B_SPLINE_CURVE_WITH_KNOTS('',3,(#61,#62,#63,#64,#65,#66,#67,#68),
  .UNSPECIFIED.,.F.,.F.,(4,2,2,4),(-1.46879162474,8.712127682422E-16,24.
    ,25.46879162474),.UNSPECIFIED.);
#61 = CARTESIAN_POINT('',(24.,-1.46879162474,1.872294199588));
#62 = CARTESIAN_POINT('',(24.,-0.979194416493,1.870640816042));
#63 = CARTESIAN_POINT('',(24.,-0.489597208247,1.868987432496));
#64 = CARTESIAN_POINT('',(24.,8.,1.840317823891));
#65 = CARTESIAN_POINT('',(24.,16.,1.705236698591));
#66 = CARTESIAN_POINT('',(24.,24.489597208247,1.676567089985));
#67 = CARTESIAN_POINT('',(24.,24.979194416493,1.674913706439));
#68 = CARTESIAN_POINT('',(24.,25.46879162474,1.673260322893));
#69 = PCURVE('',#32,#70);
#70 = DEFINITIONAL_REPRESENTATION('',(#71),#76);
#71 = B_SPLINE_CURVE_WITH_KNOTS('',3,(#72,#73,#74,#75),.UNSPECIFIED.,.F.
  ,.F.,(4,4),(8.712127682422E-16,24.),.PIECEWISE_BEZIER_KNOTS.);
#72 = CARTESIAN_POINT('',(1.86733404895,5.329070518201E-15));
#73 = CARTESIAN_POINT('',(1.840317823891,-8.));
#74 = CARTESIAN_POINT('',(1.705236698591,-16.));
#75 = CARTESIAN_POINT('',(1.678220473531,-24.));
#76 = ( GEOMETRIC_REPRESENTATION_CONTEXT(2) 
PARAMETRIC_REPRESENTATION_CONTEXT() REPRESENTATION_CONTEXT('2D SPACE',''
  ) );
#77 = PCURVE('',#78,#103);
#78 = ( BOUNDED_SURFACE() B_SPLINE_SURFACE(2,3,(
    (#79,#80,#81,#82,#83,#84,#85,#86)
    ,(#87,#88,#89,#90,#91,#92,#93,#94)
    ,(#95,#96,#97,#98,#99,#100,#101,#102
)),.UNSPECIFIED.,.F.,.F.,.F.) B_SPLINE_SURFACE_WITH_KNOTS((3,3),(4,2,2,4
    ),(0.,24.),(-1.46879162474,8.712127682422E-16,24.,25.46879162474),
.UNSPECIFIED.) GEOMETRIC_REPRESENTATION_ITEM() RATIONAL_B_SPLINE_SURFACE
((
    (1.,1.,1.,1.,1.,1.,1.,1.)
    ,(0.707106781187,0.707106781187,0.707106781187,0.707106781187
      ,0.707106781187,0.707106781187,0.707106781187,0.707106781187)
,(1.,1.,1.,1.,1.,1.,1.,1.))) REPRESENTATION_ITEM('') SURFACE() );
#79 = CARTESIAN_POINT('',(24.,-1.46879162474,1.872294199588));
#80 = CARTESIAN_POINT('',(24.,-0.979194416493,1.870640816042));
#81 = CARTESIAN_POINT('',(24.,-0.489597208247,1.868987432496));
#82 = CARTESIAN_POINT('',(24.,8.,1.840317823891));
#83 = CARTESIAN_POINT('',(24.,16.,1.705236698591));
#84 = CARTESIAN_POINT('',(24.,24.489597208247,1.676567089985));
#85 = CARTESIAN_POINT('',(24.,24.979194416493,1.674913706439));
#86 = CARTESIAN_POINT('',(24.,25.46879162474,1.673260322893));
#87 = CARTESIAN_POINT('',(24.,-1.4688,5.958789017768E-16));
#88 = CARTESIAN_POINT('',(24.,-0.979197208247,5.822896944687E-16));
#89 = CARTESIAN_POINT('',(24.,-0.489597208247,5.687005646473E-16));
#90 = CARTESIAN_POINT('',(24.,8.,3.330669073875E-16));
#91 = CARTESIAN_POINT('',(24.,16.,6.661338147751E-16));
#92 = CARTESIAN_POINT('',(24.,24.489597208247,5.483169861452E-16));
#93 = CARTESIAN_POINT('',(24.,24.979197208247,5.415224212345E-16));
#94 = CARTESIAN_POINT('',(24.,25.4688,5.347278175805E-16));
#95 = CARTESIAN_POINT('',(22.127705800412,-1.46879162474,
    4.076715700407E-17));
#96 = CARTESIAN_POINT('',(22.129359183958,-0.979194416493,
    2.717810466938E-17));
#97 = CARTESIAN_POINT('',(22.131012567504,-0.489597208247,
    1.358905233469E-17));
#98 = CARTESIAN_POINT('',(22.159682176109,8.,-2.22044604925E-16));
#99 = CARTESIAN_POINT('',(22.294763301409,16.,4.440892098501E-16));
#100 = CARTESIAN_POINT('',(22.323432910015,24.489597208247,
    -2.717810466938E-17));
#101 = CARTESIAN_POINT('',(22.325086293561,24.979194416493,
    -5.435620933876E-17));
#102 = CARTESIAN_POINT('',(22.326739677107,25.46879162474,
    -8.153431400813E-17));
#103 = DEFINITIONAL_REPRESENTATION('',(#104),#108);
#104 = LINE('',#105,#106);
#105 = CARTESIAN_POINT('',(0.,0.));
#106 = VECTOR('',#107,1.);
#107 = DIRECTION('',(0.,1.));
#108 = ( GEOMETRIC_REPRESENTATION_CONTEXT(2) 
PARAMETRIC_REPRESENTATION_CONTEXT() REPRESENTATION_CONTEXT('2D SPACE',''
  ) );
#109 = ORIENTED_EDGE('',*,*,#110,.T.);
#110 = EDGE_CURVE('',#57,#111,#113,.T.);
#111 = VERTEX_POINT('',#112);
#112 = CARTESIAN_POINT('',(24.,24.,18.));
#113 = SURFACE_CURVE('',#114,(#118,#125),.PCURVE_S1.);
#114 = LINE('',#115,#116);
#115 = CARTESIAN_POINT('',(24.,24.,0.));
#116 = VECTOR('',#117,1.);
#117 = DIRECTION('',(0.,0.,1.));
#118 = PCURVE('',#32,#119);
#119 = DEFINITIONAL_REPRESENTATION('',(#120),#124);
#120 = LINE('',#121,#122);
#121 = CARTESIAN_POINT('',(0.,-24.));
#122 = VECTOR('',#123,1.);
#123 = DIRECTION('',(1.,0.));
#124 = ( GEOMETRIC_REPRESENTATION_CONTEXT(2) 
PARAMETRIC_REPRESENTATION_CONTEXT() REPRESENTATION_CONTEXT('2D SPACE',''
  ) );
#125 = PCURVE('',#126,#131);
#126 = PLANE('',#127);
#127 = AXIS2_PLACEMENT_3D('',#128,#129,#130);
#128 = CARTESIAN_POINT('',(0.,24.,0.));
#129 = DIRECTION('',(-0.,1.,0.));
#130 = DIRECTION('',(0.,0.,1.));
#131 = DEFINITIONAL_REPRESENTATION('',(#132),#136);
#132 = LINE('',#133,#134);
#133 = CARTESIAN_POINT('',(0.,24.));
#134 = VECTOR('',#135,1.);
#135 = DIRECTION('',(1.,0.));
#136 = ( GEOMETRIC_REPRESENTATION_CONTEXT(2) 
PARAMETRIC_REPRESENTATION_CONTEXT() REPRESENTATION_CONTEXT('2D SPACE',''
  ) );
#137 = ORIENTED_EDGE('',*,*,#138,.F.);
#138 = EDGE_CURVE('',#24,#111,#139,.T.);
#139 = SURFACE_CURVE('',#140,(#144,#151),.PCURVE_S1.);
#140 = LINE('',#141,#142);
#141 = CARTESIAN_POINT('',(24.,0.,18.));
#142 = VECTOR('',#143,1.);
#143 = DIRECTION('',(-0.,1.,0.));
#144 = PCURVE('',#32,#145);
#145 = DEFINITIONAL_REPRESENTATION('',(#146),#150);
#146 = LINE('',#147,#148);
#147 = CARTESIAN_POINT('',(18.,0.));
#148 = VECTOR('',#149,1.);
#149 = DIRECTION('',(0.,-1.));
#150 = ( GEOMETRIC_REPRESENTATION_CONTEXT(2) 
PARAMETRIC_REPRESENTATION_CONTEXT() REPRESENTATION_CONTEXT('2D SPACE',''
  ) );
#151 = PCURVE('',#152,#157);
#152 = PLANE('',#153);
#153 = AXIS2_PLACEMENT_3D('',#154,#155,#156);
#154 = CARTESIAN_POINT('',(0.,0.,18.));
#155 = DIRECTION('',(0.,0.,1.));
#156 = DIRECTION('',(1.,0.,-0.));
#157 = DEFINITIONAL_REPRESENTATION('',(#158),#162);
#158 = LINE('',#159,#160);
#159 = CARTESIAN_POINT('',(24.,0.));
#160 = VECTOR('',#161,1.);
#161 = DIRECTION('',(0.,1.));
#162 = ( GEOMETRIC_REPRESENTATION_CONTEXT(2) 
PARAMETRIC_REPRESENTATION_CONTEXT() REPRESENTATION_CONTEXT('2D SPACE',''
  ) );
#163 = ADVANCED_FACE('27',(#164),#44,.F.);
#164 = FACE_BOUND('',#165,.F.);
#165 = EDGE_LOOP('',(#166,#196,#224,#245,#246));
#166 = ORIENTED_EDGE('',*,*,#167,.F.);
#167 = EDGE_CURVE('',#168,#170,#172,.T.);
#168 = VERTEX_POINT('',#169);
#169 = CARTESIAN_POINT('',(0.,0.,0.));
#170 = VERTEX_POINT('',#171);
#171 = CARTESIAN_POINT('',(22.13266595105,0.,0.));
#172 = SURFACE_CURVE('',#173,(#177,#184),.PCURVE_S1.);
#173 = LINE('',#174,#175);
#174 = CARTESIAN_POINT('',(0.,0.,0.));
#175 = VECTOR('',#176,1.);
#176 = DIRECTION('',(1.,0.,-0.));
#177 = PCURVE('',#44,#178);
#178 = DEFINITIONAL_REPRESENTATION('',(#179),#183);
#179 = LINE('',#180,#181);
#180 = CARTESIAN_POINT('',(0.,0.));
#181 = VECTOR('',#182,1.);
#182 = DIRECTION('',(0.,1.));
#183 = ( GEOMETRIC_REPRESENTATION_CONTEXT(2) 
PARAMETRIC_REPRESENTATION_CONTEXT() REPRESENTATION_CONTEXT('2D SPACE',''
  ) );
#184 = PCURVE('',#185,#190);
#185 = PLANE('',#186);
#186 = AXIS2_PLACEMENT_3D('',#187,#188,#189);
#187 = CARTESIAN_POINT('',(0.,0.,0.));
#188 = DIRECTION('',(0.,0.,1.));
#189 = DIRECTION('',(1.,0.,-0.));
#190 = DEFINITIONAL_REPRESENTATION('',(#191),#195);
#191 = LINE('',#192,#193);
#192 = CARTESIAN_POINT('',(0.,0.));
#193 = VECTOR('',#194,1.);
#194 = DIRECTION('',(1.,0.));
#195 = ( GEOMETRIC_REPRESENTATION_CONTEXT(2) 
PARAMETRIC_REPRESENTATION_CONTEXT() REPRESENTATION_CONTEXT('2D SPACE',''
  ) );
#196 = ORIENTED_EDGE('',*,*,#197,.T.);
#197 = EDGE_CURVE('',#168,#198,#200,.T.);
#198 = VERTEX_POINT('',#199);
#199 = CARTESIAN_POINT('',(0.,0.,18.));
#200 = SURFACE_CURVE('',#201,(#205,#212),.PCURVE_S1.);
#201 = LINE('',#202,#203);
#202 = CARTESIAN_POINT('',(0.,0.,0.));
#203 = VECTOR('',#204,1.);
#204 = DIRECTION('',(0.,0.,1.));
#205 = PCURVE('',#44,#206);
#206 = DEFINITIONAL_REPRESENTATION('',(#207),#211);
#207 = LINE('',#208,#209);
#208 = CARTESIAN_POINT('',(0.,0.));
#209 = VECTOR('',#210,1.);
#210 = DIRECTION('',(1.,0.));
#211 = ( GEOMETRIC_REPRESENTATION_CONTEXT(2) 
PARAMETRIC_REPRESENTATION_CONTEXT() REPRESENTATION_CONTEXT('2D SPACE',''
  ) );
#212 = PCURVE('',#213,#218);
#213 = PLANE('',#214);
#214 = AXIS2_PLACEMENT_3D('',#215,#216,#217);
#215 = CARTESIAN_POINT('',(0.,0.,0.));
#216 = DIRECTION('',(1.,0.,-0.));
#217 = DIRECTION('',(0.,0.,1.));
#218 = DEFINITIONAL_REPRESENTATION('',(#219),#223);
#219 = LINE('',#220,#221);
#220 = CARTESIAN_POINT('',(0.,0.));
#221 = VECTOR('',#222,1.);
#222 = DIRECTION('',(1.,0.));
#223 = ( GEOMETRIC_REPRESENTATION_CONTEXT(2) 
PARAMETRIC_REPRESENTATION_CONTEXT() REPRESENTATION_CONTEXT('2D SPACE',''
  ) );
#224 = ORIENTED_EDGE('',*,*,#225,.T.);
#225 = EDGE_CURVE('',#198,#24,#226,.T.);
#226 = SURFACE_CURVE('',#227,(#231,#238),.PCURVE_S1.);
#227 = LINE('',#228,#229);
#228 = CARTESIAN_POINT('',(0.,0.,18.));
#229 = VECTOR('',#230,1.);
#230 = DIRECTION('',(1.,0.,-0.));
#231 = PCURVE('',#44,#232);
#232 = DEFINITIONAL_REPRESENTATION('',(#233),#237);
#233 = LINE('',#234,#235);
#234 = CARTESIAN_POINT('',(18.,0.));
#235 = VECTOR('',#236,1.);
#236 = DIRECTION('',(0.,1.));
#237 = ( GEOMETRIC_REPRESENTATION_CONTEXT(2) 
PARAMETRIC_REPRESENTATION_CONTEXT() REPRESENTATION_CONTEXT('2D SPACE',''
  ) );
#238 = PCURVE('',#152,#239);
#239 = DEFINITIONAL_REPRESENTATION('',(#240),#244);
#240 = LINE('',#241,#242);
#241 = CARTESIAN_POINT('',(0.,0.));
#242 = VECTOR('',#243,1.);
#243 = DIRECTION('',(1.,0.));
#244 = ( GEOMETRIC_REPRESENTATION_CONTEXT(2) 
PARAMETRIC_REPRESENTATION_CONTEXT() REPRESENTATION_CONTEXT('2D SPACE',''
  ) );
#245 = ORIENTED_EDGE('',*,*,#21,.F.);
#246 = ORIENTED_EDGE('',*,*,#247,.T.);
#247 = EDGE_CURVE('',#22,#170,#248,.T.);
#248 = SURFACE_CURVE('',#249,(#272,#298),.PCURVE_S1.);
#249 = B_SPLINE_CURVE_WITH_KNOTS('',6,(#250,#251,#252,#253,#254,#255,
    #256,#257,#258,#259,#260,#261,#262,#263,#264,#265,#266,#267,#268,
    #269,#270,#271),.UNSPECIFIED.,.F.,.F.,(7,5,5,5,7),(0.,0.249853575738
    ,0.499999999326,0.749146272358,1.),.UNSPECIFIED.);
#250 = CARTESIAN_POINT('',(24.,0.,1.86733404895));
#251 = CARTESIAN_POINT('',(23.999999999351,0.,1.757209672175));
#252 = CARTESIAN_POINT('',(23.992206375235,0.,1.643895315113));
#253 = CARTESIAN_POINT('',(23.975774199285,0.,1.52825213006));
#254 = CARTESIAN_POINT('',(23.949972706941,0.,1.411420988659));
#255 = CARTESIAN_POINT('',(23.91435802448,0.,1.294824861763));
#256 = CARTESIAN_POINT('',(23.823371292861,0.,1.064997058175));
#257 = CARTESIAN_POINT('',(23.76797549252,0.,0.951768934049));
#258 = CARTESIAN_POINT('',(23.702663528906,0.,0.841812570656));
#259 = CARTESIAN_POINT('',(23.627791432169,0.,0.736746280292));
#260 = CARTESIAN_POINT('',(23.544204807768,0.,0.638063768162));
#261 = CARTESIAN_POINT('',(23.362300610458,0.,0.456159570852));
#262 = CARTESIAN_POINT('',(23.26404271394,0.,0.372877095919));
#263 = CARTESIAN_POINT('',(23.159447394035,0.,0.298234966332));
#264 = CARTESIAN_POINT('',(23.049989121312,0.,0.233069964522));
#265 = CARTESIAN_POINT('',(22.937266004235,0.,0.177737727818));
#266 = CARTESIAN_POINT('',(22.707508750351,0.,8.635636407517E-02));
#267 = CARTESIAN_POINT('',(22.59044981163,0.,5.044133850125E-02));
#268 = CARTESIAN_POINT('',(22.47313673433,0.,2.442353599872E-02));
#269 = CARTESIAN_POINT('',(22.357011923957,0.,7.85614959567E-03));
#270 = CARTESIAN_POINT('',(22.243231149206,0.,6.515115931229E-10));
#271 = CARTESIAN_POINT('',(22.13266595105,0.,-1.110223024625E-16));
#272 = PCURVE('',#44,#273);
#273 = DEFINITIONAL_REPRESENTATION('',(#274),#297);
#274 = B_SPLINE_CURVE_WITH_KNOTS('',6,(#275,#276,#277,#278,#279,#280,
    #281,#282,#283,#284,#285,#286,#287,#288,#289,#290,#291,#292,#293,
    #294,#295,#296),.UNSPECIFIED.,.F.,.F.,(7,5,5,5,7),(0.,0.249853575738
    ,0.499999999326,0.749146272358,1.),.UNSPECIFIED.);
#275 = CARTESIAN_POINT('',(1.86733404895,24.));
#276 = CARTESIAN_POINT('',(1.757209672175,23.999999999351));
#277 = CARTESIAN_POINT('',(1.643895315113,23.992206375235));
#278 = CARTESIAN_POINT('',(1.52825213006,23.975774199285));
#279 = CARTESIAN_POINT('',(1.411420988659,23.949972706941));
#280 = CARTESIAN_POINT('',(1.294824861763,23.91435802448));
#281 = CARTESIAN_POINT('',(1.064997058175,23.823371292861));
#282 = CARTESIAN_POINT('',(0.951768934049,23.76797549252));
#283 = CARTESIAN_POINT('',(0.841812570656,23.702663528906));
#284 = CARTESIAN_POINT('',(0.736746280292,23.627791432169));
#285 = CARTESIAN_POINT('',(0.638063768162,23.544204807768));
#286 = CARTESIAN_POINT('',(0.456159570852,23.362300610458));
#287 = CARTESIAN_POINT('',(0.372877095919,23.26404271394));
#288 = CARTESIAN_POINT('',(0.298234966332,23.159447394035));
#289 = CARTESIAN_POINT('',(0.233069964522,23.049989121312));
#290 = CARTESIAN_POINT('',(0.177737727818,22.937266004235));
#291 = CARTESIAN_POINT('',(8.635636407517E-02,22.707508750351));
#292 = CARTESIAN_POINT('',(5.044133850125E-02,22.59044981163));
#293 = CARTESIAN_POINT('',(2.442353599872E-02,22.47313673433));
#294 = CARTESIAN_POINT('',(7.85614959567E-03,22.357011923957));
#295 = CARTESIAN_POINT('',(6.515115931229E-10,22.243231149206));
#296 = CARTESIAN_POINT('',(-1.110223024625E-16,22.13266595105));
#297 = ( GEOMETRIC_REPRESENTATION_CONTEXT(2) 
PARAMETRIC_REPRESENTATION_CONTEXT() REPRESENTATION_CONTEXT('2D SPACE',''
  ) );
#298 = PCURVE('',#78,#299);
#299 = DEFINITIONAL_REPRESENTATION('',(#300),#323);
#300 = B_SPLINE_CURVE_WITH_KNOTS('',6,(#301,#302,#303,#304,#305,#306,
    #307,#308,#309,#310,#311,#312,#313,#314,#315,#316,#317,#318,#319,
    #320,#321,#322),.UNSPECIFIED.,.F.,.F.,(7,5,5,5,7),(0.,0.249853575738
    ,0.499999999326,0.749146272358,1.),.UNSPECIFIED.);
#301 = CARTESIAN_POINT('',(0.,8.624119564284E-16));
#302 = CARTESIAN_POINT('',(1.000823951504,8.616757825375E-16));
#303 = CARTESIAN_POINT('',(2.001301033954,5.469434405501E-16));
#304 = CARTESIAN_POINT('',(3.001430588979,1.050810136405E-15));
#305 = CARTESIAN_POINT('',(4.001230066105,7.068127832698E-16));
#306 = CARTESIAN_POINT('',(5.000739276211,7.906817396965E-16));
#307 = CARTESIAN_POINT('',(7.00043193518,8.045573878768E-16));
#308 = CARTESIAN_POINT('',(8.000622598217,7.830367042772E-16));
#309 = CARTESIAN_POINT('',(9.000605963297,8.107370772994E-16));
#310 = CARTESIAN_POINT('',(10.000447499147,7.927554465889E-16));
#311 = CARTESIAN_POINT('',(11.00022626757,7.976155003329E-16));
#312 = CARTESIAN_POINT('',(12.995776376642,7.976155003329E-16));
#313 = CARTESIAN_POINT('',(13.991557697875,8.024560929312E-16));
#314 = CARTESIAN_POINT('',(14.987401094439,7.8454646186E-16));
#315 = CARTESIAN_POINT('',(15.983384600384,8.121359287712E-16));
#316 = CARTESIAN_POINT('',(16.97957296072,7.907014023437E-16));
#317 = CARTESIAN_POINT('',(18.979255774548,8.045769821675E-16));
#318 = CARTESIAN_POINT('',(19.98276128911,4.617553891627E-15));
#319 = CARTESIAN_POINT('',(20.986558934478,-8.884065090289E-15));
#320 = CARTESIAN_POINT('',(21.990689208313,1.010302311608E-14));
#321 = CARTESIAN_POINT('',(22.99516980929,-1.549108064047E-15));
#322 = CARTESIAN_POINT('',(24.,-1.549108064047E-15));
#323 = ( GEOMETRIC_REPRESENTATION_CONTEXT(2) 
PARAMETRIC_REPRESENTATION_CONTEXT() REPRESENTATION_CONTEXT('2D SPACE',''
  ) );
#324 = ADVANCED_FACE('26',(#325),#78,.T.);
#325 = FACE_BOUND('',#326,.T.);
#326 = EDGE_LOOP('',(#327,#328,#357,#435));
#327 = ORIENTED_EDGE('',*,*,#247,.T.);
#328 = ORIENTED_EDGE('',*,*,#329,.T.);
#329 = EDGE_CURVE('',#170,#330,#332,.T.);
#330 = VERTEX_POINT('',#331);
#331 = CARTESIAN_POINT('',(22.321779526469,24.,0.));
#332 = SURFACE_CURVE('',#333,(#342,#349),.PCURVE_S1.);
#333 = B_SPLINE_CURVE_WITH_KNOTS('',3,(#334,#335,#336,#337,#338,#339,
    #340,#341),.UNSPECIFIED.,.F.,.F.,(4,2,2,4),(-1.46879162474,
    8.712127682422E-16,24.,25.46879162474),.UNSPECIFIED.);
#334 = CARTESIAN_POINT('',(22.127705800412,-1.46879162474,
    4.076715700407E-17));
#335 = CARTESIAN_POINT('',(22.129359183958,-0.979194416493,
    2.717810466938E-17));
#336 = CARTESIAN_POINT('',(22.131012567504,-0.489597208247,
    1.358905233469E-17));
#337 = CARTESIAN_POINT('',(22.159682176109,8.,-2.22044604925E-16));
#338 = CARTESIAN_POINT('',(22.294763301409,16.,4.440892098501E-16));
#339 = CARTESIAN_POINT('',(22.323432910015,24.489597208247,
    -2.717810466938E-17));
#340 = CARTESIAN_POINT('',(22.325086293561,24.979194416493,
    -5.435620933876E-17));
#341 = CARTESIAN_POINT('',(22.326739677107,25.46879162474,
    -8.153431400813E-17));
#342 = PCURVE('',#78,#343);
#343 = DEFINITIONAL_REPRESENTATION('',(#344),#348);
#344 = LINE('',#345,#346);
#345 = CARTESIAN_POINT('',(24.,0.));
#346 = VECTOR('',#347,1.);
#347 = DIRECTION('',(0.,1.));
#348 = ( GEOMETRIC_REPRESENTATION_CONTEXT(2) 
PARAMETRIC_REPRESENTATION_CONTEXT() REPRESENTATION_CONTEXT('2D SPACE',''
  ) );
#349 = PCURVE('',#185,#350);
#350 = DEFINITIONAL_REPRESENTATION('',(#351),#356);
#351 = B_SPLINE_CURVE_WITH_KNOTS('',3,(#352,#353,#354,#355),
  .UNSPECIFIED.,.F.,.F.,(4,4),(8.712127682422E-16,24.),
  .PIECEWISE_BEZIER_KNOTS.);
#352 = CARTESIAN_POINT('',(22.13266595105,0.));
#353 = CARTESIAN_POINT('',(22.159682176109,8.));
#354 = CARTESIAN_POINT('',(22.294763301409,16.));
#355 = CARTESIAN_POINT('',(22.321779526469,24.));
#356 = ( GEOMETRIC_REPRESENTATION_CONTEXT(2) 
PARAMETRIC_REPRESENTATION_CONTEXT() REPRESENTATION_CONTEXT('2D SPACE',''
  ) );
#357 = ORIENTED_EDGE('',*,*,#358,.F.);
#358 = EDGE_CURVE('',#57,#330,#359,.T.);
#359 = SURFACE_CURVE('',#360,(#383,#409),.PCURVE_S1.);
#360 = B_SPLINE_CURVE_WITH_KNOTS('',6,(#361,#362,#363,#364,#365,#366,
    #367,#368,#369,#370,#371,#372,#373,#374,#375,#376,#377,#378,#379,
    #380,#381,#382),.UNSPECIFIED.,.F.,.F.,(7,5,5,5,7),(0.,0.249881398522
    ,0.499999999456,0.749118478477,1.),.UNSPECIFIED.);
#361 = CARTESIAN_POINT('',(24.,24.,1.678220473531));
#362 = CARTESIAN_POINT('',(23.999999999417,24.,1.57926441286));
#363 = CARTESIAN_POINT('',(23.9929978641,24.,1.477435802581));
#364 = CARTESIAN_POINT('',(23.978232878502,24.,1.373507505806));
#365 = CARTESIAN_POINT('',(23.955046274594,24.,1.268504429632));
#366 = CARTESIAN_POINT('',(23.923037129155,24.,1.163706456766));
#367 = CARTESIAN_POINT('',(23.841262655364,24.,0.95714834256));
#368 = CARTESIAN_POINT('',(23.79147997891,24.,0.855390840197));
#369 = CARTESIAN_POINT('',(23.732783733503,24.,0.756569337612));
#370 = CARTESIAN_POINT('',(23.665493094612,24.,0.662140104956));
#371 = CARTESIAN_POINT('',(23.590368817535,24.,0.573447610277));
#372 = CARTESIAN_POINT('',(23.426879907146,24.,0.409958699888));
#373 = CARTESIAN_POINT('',(23.338569073973,24.,0.335107800262));
#374 = CARTESIAN_POINT('',(23.244563159019,24.,0.268023847189));
#375 = CARTESIAN_POINT('',(23.146189313358,24.,0.209459657142));
#376 = CARTESIAN_POINT('',(23.044885627664,24.,0.159734073296));
#377 = CARTESIAN_POINT('',(22.83839072699,24.,7.76048464249E-02));
#378 = CARTESIAN_POINT('',(22.733176732919,24.,4.532575640161E-02));
#379 = CARTESIAN_POINT('',(22.62774048745,24.,2.194476946666E-02));
#380 = CARTESIAN_POINT('',(22.523379362153,24.,7.058303163514E-03));
#381 = CARTESIAN_POINT('',(22.421131647066,24.,5.854380696243E-10));
#382 = CARTESIAN_POINT('',(22.321779526469,24.,5.551115123126E-17));
#383 = PCURVE('',#78,#384);
#384 = DEFINITIONAL_REPRESENTATION('',(#385),#408);
#385 = B_SPLINE_CURVE_WITH_KNOTS('',6,(#386,#387,#388,#389,#390,#391,
    #392,#393,#394,#395,#396,#397,#398,#399,#400,#401,#402,#403,#404,
    #405,#406,#407),.UNSPECIFIED.,.F.,.F.,(7,5,5,5,7),(0.,0.249881398522
    ,0.499999999456,0.749118478477,1.),.UNSPECIFIED.);
#386 = CARTESIAN_POINT('',(0.,24.));
#387 = CARTESIAN_POINT('',(1.000667110993,24.));
#388 = CARTESIAN_POINT('',(2.00105350303,24.));
#389 = CARTESIAN_POINT('',(3.00115854438,24.));
#390 = CARTESIAN_POINT('',(4.000996244438,24.));
#391 = CARTESIAN_POINT('',(5.000598789983,24.));
#392 = CARTESIAN_POINT('',(7.000349901594,24.));
#393 = CARTESIAN_POINT('',(8.000504409938,24.));
#394 = CARTESIAN_POINT('',(9.000490961192,24.));
#395 = CARTESIAN_POINT('',(10.000362568236,24.));
#396 = CARTESIAN_POINT('',(11.000183328001,24.));
#397 = CARTESIAN_POINT('',(12.995818814343,24.));
#398 = CARTESIAN_POINT('',(13.99164164229,24.));
#399 = CARTESIAN_POINT('',(14.987514756957,24.));
#400 = CARTESIAN_POINT('',(15.983501421726,24.));
#401 = CARTESIAN_POINT('',(16.979654063888,24.));
#402 = CARTESIAN_POINT('',(18.979397200393,24.));
#403 = CARTESIAN_POINT('',(19.982996752533,24.));
#404 = CARTESIAN_POINT('',(20.986832969736,24.));
#405 = CARTESIAN_POINT('',(21.990938594864,24.));
#406 = CARTESIAN_POINT('',(22.995327837275,24.));
#407 = CARTESIAN_POINT('',(24.,24.));
#408 = ( GEOMETRIC_REPRESENTATION_CONTEXT(2) 
PARAMETRIC_REPRESENTATION_CONTEXT() REPRESENTATION_CONTEXT('2D SPACE',''
  ) );
#409 = PCURVE('',#126,#410);
#410 = DEFINITIONAL_REPRESENTATION('',(#411),#434);
#411 = B_SPLINE_CURVE_WITH_KNOTS('',6,(#412,#413,#414,#415,#416,#417,
    #418,#419,#420,#421,#422,#423,#424,#425,#426,#427,#428,#429,#430,
    #431,#432,#433),.UNSPECIFIED.,.F.,.F.,(7,5,5,5,7),(0.,0.249881398522
    ,0.499999999456,0.749118478477,1.),.UNSPECIFIED.);
#412 = CARTESIAN_POINT('',(1.678220473531,24.));
#413 = CARTESIAN_POINT('',(1.57926441286,23.999999999417));
#414 = CARTESIAN_POINT('',(1.477435802581,23.9929978641));
#415 = CARTESIAN_POINT('',(1.373507505806,23.978232878502));
#416 = CARTESIAN_POINT('',(1.268504429632,23.955046274594));
#417 = CARTESIAN_POINT('',(1.163706456766,23.923037129155));
#418 = CARTESIAN_POINT('',(0.95714834256,23.841262655364));
#419 = CARTESIAN_POINT('',(0.855390840197,23.79147997891));
#420 = CARTESIAN_POINT('',(0.756569337612,23.732783733503));
#421 = CARTESIAN_POINT('',(0.662140104956,23.665493094612));
#422 = CARTESIAN_POINT('',(0.573447610277,23.590368817535));
#423 = CARTESIAN_POINT('',(0.409958699888,23.426879907146));
#424 = CARTESIAN_POINT('',(0.335107800262,23.338569073973));
#425 = CARTESIAN_POINT('',(0.268023847189,23.244563159019));
#426 = CARTESIAN_POINT('',(0.209459657142,23.146189313358));
#427 = CARTESIAN_POINT('',(0.159734073296,23.044885627664));
#428 = CARTESIAN_POINT('',(7.76048464249E-02,22.83839072699));
#429 = CARTESIAN_POINT('',(4.532575640161E-02,22.733176732919));
#430 = CARTESIAN_POINT('',(2.194476946666E-02,22.62774048745));
#431 = CARTESIAN_POINT('',(7.058303163514E-03,22.523379362153));
#432 = CARTESIAN_POINT('',(5.854380696243E-10,22.421131647066));
#433 = CARTESIAN_POINT('',(5.551115123126E-17,22.321779526469));
#434 = ( GEOMETRIC_REPRESENTATION_CONTEXT(2) 
PARAMETRIC_REPRESENTATION_CONTEXT() REPRESENTATION_CONTEXT('2D SPACE',''
  ) );
#435 = ORIENTED_EDGE('',*,*,#56,.F.);
#436 = ADVANCED_FACE('27',(#437),#152,.T.);
#437 = FACE_BOUND('',#438,.T.);
#438 = EDGE_LOOP('',(#439,#462,#463,#464));
#439 = ORIENTED_EDGE('',*,*,#440,.F.);
#440 = EDGE_CURVE('',#198,#441,#443,.T.);
#441 = VERTEX_POINT('',#442);
#442 = CARTESIAN_POINT('',(0.,24.,18.));
#443 = SURFACE_CURVE('',#444,(#448,#455),.PCURVE_S1.);
#444 = LINE('',#445,#446);
#445 = CARTESIAN_POINT('',(0.,0.,18.));
#446 = VECTOR('',#447,1.);
#447 = DIRECTION('',(-0.,1.,0.));
#448 = PCURVE('',#152,#449);
#449 = DEFINITIONAL_REPRESENTATION('',(#450),#454);
#450 = LINE('',#451,#452);
#451 = CARTESIAN_POINT('',(0.,0.));
#452 = VECTOR('',#453,1.);
#453 = DIRECTION('',(0.,1.));
#454 = ( GEOMETRIC_REPRESENTATION_CONTEXT(2) 
PARAMETRIC_REPRESENTATION_CONTEXT() REPRESENTATION_CONTEXT('2D SPACE',''
  ) );
#455 = PCURVE('',#213,#456);
#456 = DEFINITIONAL_REPRESENTATION('',(#457),#461);
#457 = LINE('',#458,#459);
#458 = CARTESIAN_POINT('',(18.,0.));
#459 = VECTOR('',#460,1.);
#460 = DIRECTION('',(0.,-1.));
#461 = ( GEOMETRIC_REPRESENTATION_CONTEXT(2) 
PARAMETRIC_REPRESENTATION_CONTEXT() REPRESENTATION_CONTEXT('2D SPACE',''
  ) );
#462 = ORIENTED_EDGE('',*,*,#225,.T.);
#463 = ORIENTED_EDGE('',*,*,#138,.T.);
#464 = ORIENTED_EDGE('',*,*,#465,.F.);
#465 = EDGE_CURVE('',#441,#111,#466,.T.);
#466 = SURFACE_CURVE('',#467,(#471,#478),.PCURVE_S1.);
#467 = LINE('',#468,#469);
#468 = CARTESIAN_POINT('',(0.,24.,18.));
#469 = VECTOR('',#470,1.);
#470 = DIRECTION('',(1.,0.,-0.));
#471 = PCURVE('',#152,#472);
#472 = DEFINITIONAL_REPRESENTATION('',(#473),#477);
#473 = LINE('',#474,#475);
#474 = CARTESIAN_POINT('',(0.,24.));
#475 = VECTOR('',#476,1.);
#476 = DIRECTION('',(1.,0.));
#477 = ( GEOMETRIC_REPRESENTATION_CONTEXT(2) 
PARAMETRIC_REPRESENTATION_CONTEXT() REPRESENTATION_CONTEXT('2D SPACE',''
  ) );
#478 = PCURVE('',#126,#479);
#479 = DEFINITIONAL_REPRESENTATION('',(#480),#484);
#480 = LINE('',#481,#482);
#481 = CARTESIAN_POINT('',(18.,0.));
#482 = VECTOR('',#483,1.);
#483 = DIRECTION('',(0.,1.));
#484 = ( GEOMETRIC_REPRESENTATION_CONTEXT(2) 
PARAMETRIC_REPRESENTATION_CONTEXT() REPRESENTATION_CONTEXT('2D SPACE',''
  ) );
#485 = ADVANCED_FACE('27',(#486),#126,.T.);
#486 = FACE_BOUND('',#487,.T.);
#487 = EDGE_LOOP('',(#488,#511,#532,#533,#534));
#488 = ORIENTED_EDGE('',*,*,#489,.F.);
#489 = EDGE_CURVE('',#490,#330,#492,.T.);
#490 = VERTEX_POINT('',#491);
#491 = CARTESIAN_POINT('',(0.,24.,0.));
#492 = SURFACE_CURVE('',#493,(#497,#504),.PCURVE_S1.);
#493 = LINE('',#494,#495);
#494 = CARTESIAN_POINT('',(0.,24.,0.));
#495 = VECTOR('',#496,1.);
#496 = DIRECTION('',(1.,0.,-0.));
#497 = PCURVE('',#126,#498);
#498 = DEFINITIONAL_REPRESENTATION('',(#499),#503);
#499 = LINE('',#500,#501);
#500 = CARTESIAN_POINT('',(0.,0.));
#501 = VECTOR('',#502,1.);
#502 = DIRECTION('',(0.,1.));
#503 = ( GEOMETRIC_REPRESENTATION_CONTEXT(2) 
PARAMETRIC_REPRESENTATION_CONTEXT() REPRESENTATION_CONTEXT('2D SPACE',''
  ) );
#504 = PCURVE('',#185,#505);
#505 = DEFINITIONAL_REPRESENTATION('',(#506),#510);
#506 = LINE('',#507,#508);
#507 = CARTESIAN_POINT('',(0.,24.));
#508 = VECTOR('',#509,1.);
#509 = DIRECTION('',(1.,0.));
#510 = ( GEOMETRIC_REPRESENTATION_CONTEXT(2) 
PARAMETRIC_REPRESENTATION_CONTEXT() REPRESENTATION_CONTEXT('2D SPACE',''
  ) );
#511 = ORIENTED_EDGE('',*,*,#512,.T.);
#512 = EDGE_CURVE('',#490,#441,#513,.T.);
#513 = SURFACE_CURVE('',#514,(#518,#525),.PCURVE_S1.);
#514 = LINE('',#515,#516);
#515 = CARTESIAN_POINT('',(0.,24.,0.));
#516 = VECTOR('',#517,1.);
#517 = DIRECTION('',(0.,0.,1.));
#518 = PCURVE('',#126,#519);
#519 = DEFINITIONAL_REPRESENTATION('',(#520),#524);
#520 = LINE('',#521,#522);
#521 = CARTESIAN_POINT('',(0.,0.));
#522 = VECTOR('',#523,1.);
#523 = DIRECTION('',(1.,0.));
#524 = ( GEOMETRIC_REPRESENTATION_CONTEXT(2) 
PARAMETRIC_REPRESENTATION_CONTEXT() REPRESENTATION_CONTEXT('2D SPACE',''
  ) );
#525 = PCURVE('',#213,#526);
#526 = DEFINITIONAL_REPRESENTATION('',(#527),#531);
#527 = LINE('',#528,#529);
#528 = CARTESIAN_POINT('',(0.,-24.));
#529 = VECTOR('',#530,1.);
#530 = DIRECTION('',(1.,0.));
#531 = ( GEOMETRIC_REPRESENTATION_CONTEXT(2) 
PARAMETRIC_REPRESENTATION_CONTEXT() REPRESENTATION_CONTEXT('2D SPACE',''
  ) );
#532 = ORIENTED_EDGE('',*,*,#465,.T.);
#533 = ORIENTED_EDGE('',*,*,#110,.F.);
#534 = ORIENTED_EDGE('',*,*,#358,.T.);
#535 = ADVANCED_FACE('27',(#536),#185,.F.);
#536 = FACE_BOUND('',#537,.F.);
#537 = EDGE_LOOP('',(#538,#539,#560,#561));
#538 = ORIENTED_EDGE('',*,*,#489,.F.);
#539 = ORIENTED_EDGE('',*,*,#540,.F.);
#540 = EDGE_CURVE('',#168,#490,#541,.T.);
#541 = SURFACE_CURVE('',#542,(#546,#553),.PCURVE_S1.);
#542 = LINE('',#543,#544);
#543 = CARTESIAN_POINT('',(0.,0.,0.));
#544 = VECTOR('',#545,1.);
#545 = DIRECTION('',(-0.,1.,0.));
#546 = PCURVE('',#185,#547);
#547 = DEFINITIONAL_REPRESENTATION('',(#548),#552);
#548 = LINE('',#549,#550);
#549 = CARTESIAN_POINT('',(0.,0.));
#550 = VECTOR('',#551,1.);
#551 = DIRECTION('',(0.,1.));
#552 = ( GEOMETRIC_REPRESENTATION_CONTEXT(2) 
PARAMETRIC_REPRESENTATION_CONTEXT() REPRESENTATION_CONTEXT('2D SPACE',''
  ) );
#553 = PCURVE('',#213,#554);
#554 = DEFINITIONAL_REPRESENTATION('',(#555),#559);
#555 = LINE('',#556,#557);
#556 = CARTESIAN_POINT('',(0.,0.));
#557 = VECTOR('',#558,1.);
#558 = DIRECTION('',(0.,-1.));
#559 = ( GEOMETRIC_REPRESENTATION_CONTEXT(2) 
PARAMETRIC_REPRESENTATION_CONTEXT() REPRESENTATION_CONTEXT('2D SPACE',''
  ) );
#560 = ORIENTED_EDGE('',*,*,#167,.T.);
#561 = ORIENTED_EDGE('',*,*,#329,.T.);
#562 = ADVANCED_FACE('27',(#563),#213,.F.);
#563 = FACE_BOUND('',#564,.F.);
#564 = EDGE_LOOP('',(#565,#566,#567,#568));
#565 = ORIENTED_EDGE('',*,*,#197,.F.);
#566 = ORIENTED_EDGE('',*,*,#540,.T.);
#567 = ORIENTED_EDGE('',*,*,#512,.T.);
#568 = ORIENTED_EDGE('',*,*,#440,.F.);
#569 = ( GEOMETRIC_REPRESENTATION_CONTEXT(3) 
GLOBAL_UNCERTAINTY_ASSIGNED_CONTEXT((#573)) GLOBAL_UNIT_ASSIGNED_CONTEXT
((#570,#571,#572)) REPRESENTATION_CONTEXT('Context #1',
  '3D Context with UNIT and UNCERTAINTY') );
#570 = ( LENGTH_UNIT() NAMED_UNIT(*) SI_UNIT(.MILLI.,.METRE.) );
#571 = ( NAMED_UNIT(*) PLANE_ANGLE_UNIT() SI_UNIT($,.RADIAN.) );
#572 = ( NAMED_UNIT(*) SI_UNIT($,.STERADIAN.) SOLID_ANGLE_UNIT() );
#573 = UNCERTAINTY_MEASURE_WITH_UNIT(LENGTH_MEASURE(1.E-07),#570,
  'distance_accuracy_value','confusion accuracy');
#574 = PRODUCT_RELATED_PRODUCT_CATEGORY('part',$,(#7));
ENDSEC;
END-ISO-10303-21;
